<?xml version="1.0" encoding="UTF-8" standalone="no"?>
<svg
   xmlns:dc="http://purl.org/dc/elements/1.1/"
   xmlns:cc="http://creativecommons.org/ns#"
   xmlns:rdf="http://www.w3.org/1999/02/22-rdf-syntax-ns#"
   xmlns:svg="http://www.w3.org/2000/svg"
   xmlns="http://www.w3.org/2000/svg"
   xmlns:sodipodi="http://sodipodi.sourceforge.net/DTD/sodipodi-0.dtd"
   xmlns:inkscape="http://www.inkscape.org/namespaces/inkscape"
   version="1.1"
   id="svg2"
   xml:space="preserve"
   width="1543.04"
   height="394.49866"
   viewBox="0 0 1543.04 394.49866"
   sodipodi:docname="HVAC logo.ai"><metadata
     id="metadata8"><rdf:RDF><cc:Work
         rdf:about=""><dc:format>image/svg+xml</dc:format><dc:type
           rdf:resource="http://purl.org/dc/dcmitype/StillImage" /></cc:Work></rdf:RDF></metadata><defs
     id="defs6"><clipPath
       clipPathUnits="userSpaceOnUse"
       id="clipPath18"><path
         d="M 0,295.874 H 1157.276 V 0 H 0 Z"
         id="path16" /></clipPath></defs><sodipodi:namedview
     pagecolor="#ffffff"
     bordercolor="#666666"
     borderopacity="1"
     objecttolerance="10"
     gridtolerance="10"
     guidetolerance="10"
     inkscape:pageopacity="0"
     inkscape:pageshadow="2"
     inkscape:window-width="640"
     inkscape:window-height="480"
     id="namedview4" /><g
     id="g10"
     inkscape:groupmode="layer"
     inkscape:label="HVAC logo"
     transform="matrix(1.3333333,0,0,-1.3333333,0,394.49867)"><g
       id="g12"><g
         id="g14"
         clip-path="url(#clipPath18)"><g
           id="g20"
           transform="translate(319.0503,139.7158)"><path
             d="m 0,0 -8.629,3.611 c -6.027,2.42 -10.588,4.209 -9.794,6.701 0.451,1.393 3.213,2.323 11.485,2.334 12.977,0.016 25.911,-2.81 25.911,-2.81 l 1.152,11.809 c 0,0 -12.153,2.612 -26.66,2.778 -6.581,0.077 -11.312,-0.166 -15.85,-0.816 -7.689,-1.096 -20.689,-4.445 -21.334,-15.17 -0.668,-10.978 12.474,-15.775 20.501,-19.105 l 6.654,-2.644 c 7.59,-3.037 11.157,-4.149 11.031,-6.391 -0.121,-2.457 -5.385,-2.861 -12.531,-2.633 -12.621,0.396 -25.934,2.859 -25.934,2.859 l -0.81,-12.709 c 0,0 9.64,-1.521 28.925,-2.05 1.133,-0.027 2.27,-0.039 3.402,-0.039 14.035,0 31.152,2.188 33.027,13.869 C 22.269,-9.693 10.988,-4.918 0,0"
             style="fill:#009ea1;fill-opacity:1;fill-rule:nonzero;stroke:none"
             id="path22" /></g><g
           id="g24"
           transform="translate(369.2949,140.5625)"><path
             d="M 0,0 C 1.073,6.008 5.71,12.098 15.551,12.158 29.88,12.031 28.942,0 28.942,0 Z m 48.089,-10.766 c 4.836,27.449 -19.52,32.801 -25.234,33.665 -2.108,0.278 -4.364,0.483 -6.833,0.506 -25.582,0.224 -38.373,-15.892 -39.446,-29.242 -0.984,-12.104 3.615,-29.988 41.193,-29.988 13.813,0 22.682,2.035 26.456,3.119 0.408,2.543 1.229,7.751 1.858,11.754 -1.862,-0.413 -13.121,-2.814 -25.385,-2.814 -0.39,0 -0.754,0.018 -1.132,0.021 -17.07,0.588 -20.473,8.96 -20.499,12.796 0,0 -0.008,0.079 -0.018,0.183 z"
             style="fill:#009ea1;fill-opacity:1;fill-rule:nonzero;stroke:none"
             id="path26" /></g><g
           id="g28"
           transform="translate(596.4395,140.5625)"><path
             d="M 0,0 C 1.073,6.008 5.71,12.098 15.553,12.158 29.875,12.031 28.934,0 28.934,0 Z m 48.085,-10.766 c 4.835,27.449 -19.523,32.801 -25.227,33.665 -2.103,0.278 -4.376,0.483 -6.836,0.506 -25.585,0.224 -38.373,-15.892 -39.454,-29.242 -0.976,-12.104 3.619,-29.988 41.2,-29.988 13.814,0 22.681,2.035 26.466,3.119 0.398,2.543 1.215,7.751 1.85,11.754 -1.863,-0.413 -13.121,-2.814 -25.389,-2.814 -0.391,0 -0.756,0.018 -1.132,0.021 -17.067,0.588 -20.468,8.96 -20.495,12.796 0,0 0,0.079 -0.019,0.183 z"
             style="fill:#009ea1;fill-opacity:1;fill-rule:nonzero;stroke:none"
             id="path30" /></g><g
           id="g32"
           transform="translate(472.1797,143.3183)"><path
             d="M 0,0 C -0.634,-10.107 -2.391,-37.366 -2.391,-37.366 H 20.107 L 22.525,0.59 C 23.597,17.828 11.395,19.099 3.324,19.937 2.785,20 -1.501,20.34 -7.373,20.34 c -1.528,0 -3.146,-0.022 -4.839,-0.085 -13.993,-0.468 -31.772,-2.547 -31.772,-2.547 l -3.531,-55.074 h 22.585 l 2.749,44.704 c 0,0 8.009,1.152 14.327,0.877 C -5.71,8.124 0.512,8.23 0,0"
             style="fill:#009ea1;fill-opacity:1;fill-rule:nonzero;stroke:none"
             id="path34" /></g><g
           id="g36"
           transform="translate(263.54,184.2012)"><path
             d="m 0,0 h -18.682 l -1.129,-14.945 H 4.3 c 0,0 0.621,8.521 0.708,9.951 C 5.217,-1.644 3.875,0 0,0"
             style="fill:#009ea1;fill-opacity:1;fill-rule:nonzero;stroke:none"
             id="path38" /></g><g
           id="g40"
           transform="translate(546.4551,139.7207)"><path
             d="m 0,0 -8.622,3.615 c -6.036,2.416 -10.595,4.2 -9.807,6.694 0.451,1.394 3.224,2.324 11.494,2.337 12.979,0.016 25.902,-2.811 25.902,-2.811 l 1.16,11.811 c 0,0 -12.152,2.611 -26.666,2.777 -6.574,0.076 -11.308,-0.166 -15.838,-0.815 -7.69,-1.098 -20.699,-4.448 -21.346,-15.169 -0.664,-10.982 12.476,-15.774 20.504,-19.11 l 6.661,-2.639 c 7.584,-3.039 11.147,-4.147 11.031,-6.391 -0.136,-2.463 -5.387,-2.86 -12.532,-2.633 -12.633,0.389 -25.941,2.851 -25.941,2.851 l -0.808,-12.702 c 0,0 9.638,-1.52 28.923,-2.048 1.136,-0.027 2.272,-0.039 3.402,-0.039 14.041,0 31.151,2.182 33.034,13.868 C 22.265,-9.69 10.991,-4.917 0,0"
             style="fill:#009ea1;fill-opacity:1;fill-rule:nonzero;stroke:none"
             id="path42" /></g><g
           id="g44"
           transform="translate(208.6821,184.2012)"><path
             d="m 0,0 -2.121,-27.385 h -35.297 l 1.737,22.391 C -35.622,-0.181 -39.704,0 -41.732,0 h -18.205 l -6.105,-78.356 h 24.659 l 2.694,34.63 h 35.293 l -2.699,-34.63 H 18.483 L 24.569,0 Z"
             style="fill:#009ea1;fill-opacity:1;fill-rule:nonzero;stroke:none"
             id="path46" /></g><g
           id="g48"
           transform="translate(243.123,162.8633)"><path
             d="M 0,0 -4.388,-57.019 H 19.707 L 24.116,0 Z"
             style="fill:#009ea1;fill-opacity:1;fill-rule:nonzero;stroke:none"
             id="path50" /></g><g
           id="g52"
           transform="translate(926.3008,162.5644)"><path
             d="M 0,0 H 33.699 V 12.556 H -1.688 c -7.036,0 -12.786,-0.986 -17.252,-2.954 -4.468,-1.97 -8.038,-5.101 -10.709,-9.391 -3.66,-5.909 -5.488,-13.577 -5.488,-23.002 0,-7.879 1.196,-14.492 3.588,-19.837 3.656,-7.95 9.813,-12.767 18.465,-14.456 2.461,-0.493 6.014,-0.738 10.657,-0.738 h 36.126 v 12.555 H 0.633 c -5.98,0 -10.377,1.125 -13.19,3.377 -4.009,3.235 -6.014,10.059 -6.014,20.47 0,7.738 1.3,13.085 3.904,16.039 C -11.572,-1.794 -6.684,0 0,0"
             style="fill:#898989;fill-opacity:1;fill-rule:nonzero;stroke:none"
             id="path54" /></g><g
           id="g56"
           transform="translate(674.6338,158.5425)"><path
             d="M 0,0 C 0.019,0.036 0.028,0.055 0.028,0.055 L 0.024,0.053 C 0.017,0.035 0.008,0.018 0,0"
             style="fill:#898989;fill-opacity:1;fill-rule:nonzero;stroke:none"
             id="path58" /></g><g
           id="g60"
           transform="translate(857.4863,174.5307)"><path
             d="m 0,0 h -14.323 l -31.573,-69.407 h 17.544 L -4.908,-17.862 6.73,-43.404 h -17.86 l -5.748,-12.476 h 29.293 l 6.164,-13.527 H 36.051 L 6.332,-4.076 C 5.203,-1.594 2.728,0 0,0"
             style="fill:#898989;fill-opacity:1;fill-rule:nonzero;stroke:none"
             id="path62" /></g><g
           id="g64"
           transform="translate(815.1504,174.5307)"><path
             d="M 0,0 -23.443,-51.544 -46.931,0 h -17.472 l 29.718,-65.331 c 1.13,-2.482 3.606,-4.076 6.332,-4.076 h 14.325 L 17.544,0 Z"
             style="fill:#898989;fill-opacity:1;fill-rule:nonzero;stroke:none"
             id="path66" /></g><g
           id="g68"
           transform="translate(729.0713,144.5381)"><path
             d="m 0,0 h -36.929 v 24.171 c 0,3.179 -2.595,5.756 -5.797,5.756 h -10.536 v -69.728 h 16.333 v 27.189 H 0 V -39.801 H 16.436 V 29.927 H 0 Z"
             style="fill:#898989;fill-opacity:1;fill-rule:nonzero;stroke:none"
             id="path70" /></g></g></g></g></svg>
