<svg width="64" height="64" viewBox="0 0 64 64" fill="none" xmlns="http://www.w3.org/2000/svg">
<path d="M48 6.6C43.3 3.7 37.9 2 32 2V6.6H48Z" fill="#ED4C5C"/>
<path d="M32 11.2001H53.6C51.9 9.5001 50 7.9001 48 6.6001H32V11.2001Z" fill="white"/>
<path d="M32 15.8002H57.3C56.2 14.1002 55 12.6002 53.7 11.2002H32V15.8002Z" fill="#ED4C5C"/>
<path d="M32 20.3998H59.7C59 18.7998 58.2 17.1998 57.3 15.7998H32V20.3998Z" fill="white"/>
<path d="M32 24.9999H61.2C60.8 23.3999 60.3 21.8999 59.7 20.3999H32V24.9999Z" fill="#ED4C5C"/>
<path d="M32 29.7001H61.9C61.8 28.1001 61.5 26.6001 61.2 25.1001H32V29.7001Z" fill="white"/>
<path d="M61.9 29.7002H32V32.0002H2C2 32.8002 2 33.5002 2.1 34.3002H61.9C62 33.5002 62 32.8002 62 32.0002C62 31.2002 62 30.4002 61.9 29.7002Z" fill="#ED4C5C"/>
<path d="M2.79998 38.8998H61.2C61.6 37.3998 61.8 35.8998 61.9 34.2998H2.09998C2.19998 35.7998 2.49998 37.3998 2.79998 38.8998Z" fill="white"/>
<path d="M4.30005 43.4999H59.7001C60.3 41.9999 60.8 40.4999 61.2001 38.8999H2.80005C3.20005 40.4999 3.70005 41.9999 4.30005 43.4999Z" fill="#ED4C5C"/>
<path d="M6.70005 48.1H57.3C58.2001 46.6 59 45.1 59.7001 43.5H4.30005C5.00005 45.1 5.80005 46.6 6.70005 48.1Z" fill="white"/>
<path d="M10.3 52.7001H53.7C55 51.3001 56.2999 49.7001 57.2999 48.1001H6.69995C7.69995 49.8001 8.99995 51.3001 10.3 52.7001Z" fill="#ED4C5C"/>
<path d="M15.9 57.3002H48.1C50.2 56.0002 52 54.4002 53.7001 52.7002H10.3C12 54.5002 13.9 56.0002 15.9 57.3002Z" fill="white"/>
<path d="M32 61.9998C37.9 61.9998 43.4 60.2998 48.1 57.2998H15.9C20.6 60.2998 26.1 61.9998 32 61.9998Z" fill="#ED4C5C"/>
<path d="M16 6.6C13.9 7.9 12 9.5 10.3 11.2C8.9 12.6 7.7 14.2 6.7 15.8C5.8 17.3 4.9 18.8 4.3 20.4C3.7 21.9 3.2 23.4 2.8 25C2.4 26.5 2.2 28 2.1 29.6C2 30.4 2 31.2 2 32H32V2C26.1 2 20.7 3.7 16 6.6Z" fill="#428BC1"/>
<path d="M25 3L25.5 4.5H27L25.8 5.5L26.2 7L25 6.1L23.8 7L24.2 5.5L23 4.5H24.5L25 3ZM29 9L29.5 10.5H31L29.8 11.5L30.2 13L29 12.1L27.8 13L28.2 11.5L27 10.5H28.5L29 9ZM21 9L21.5 10.5H23L21.8 11.5L22.2 13L21 12.1L19.8 13L20.2 11.5L19 10.5H20.5L21 9ZM25 15L25.5 16.5H27L25.8 17.5L26.2 19L25 18.1L23.8 19L24.2 17.5L23 16.5H24.5L25 15ZM17 15L17.5 16.5H19L17.8 17.5L18.2 19L17 18.1L15.8 19L16.2 17.5L15 16.5H16.5L17 15ZM9.00002 15L9.50002 16.5H11L9.80002 17.5L10.2 19L9.00002 18.1L7.80002 19L8.20002 17.5L7.00002 16.5H8.50002L9.00002 15ZM29 21L29.5 22.5H31L29.8 23.5L30.2 25L29 24.1L27.8 25L28.2 23.5L27 22.5H28.5L29 21ZM21 21L21.5 22.5H23L21.8 23.5L22.2 25L21 24.1L19.8 25L20.2 23.5L19 22.5H20.5L21 21ZM13 21L13.5 22.5H15L13.8 23.5L14.2 25L13 24.1L11.8 25L12.2 23.5L11 22.5H12.5L13 21ZM25 27L25.5 28.5H27L25.8 29.5L26.2 31L25 30.1L23.8 31L24.2 29.5L23 28.5H24.5L25 27ZM17 27L17.5 28.5H19L17.8 29.5L18.2 31L17 30.1L15.8 31L16.2 29.5L15 28.5H16.5L17 27ZM9.00002 27L9.50002 28.5H11L9.80002 29.5L10.2 31L9.00002 30.1L7.80002 31L8.20002 29.5L7.00002 28.5H8.50002L9.00002 27ZM11.8 13L13 12.1L14.2 13L13.7 11.5L14.9 10.5H13.4L13 9L12.5 10.5H11.1L12.3 11.4L11.8 13ZM3.80002 25L5.00002 24.1L6.20002 25L5.70002 23.5L6.90002 22.5H5.50002L5.00002 21L4.50002 22.5H3.50002C3.50002 22.6 3.40002 22.7 3.40002 22.8L4.20002 23.4L3.80002 25Z" fill="white"/>
</svg>
