<svg width="200" height="26" viewBox="0 0 267 26" fill="none" xmlns="http://www.w3.org/2000/svg">
<path d="M57.4679 14.4337L54.6569 13.2621C52.6935 12.4769 51.2077 11.8964 51.4664 11.0879C51.6133 10.6359 52.5131 10.3342 55.2078 10.3306C59.4352 10.3254 63.6486 11.2423 63.6486 11.2423L64.0239 7.41075C64.0239 7.41075 60.0649 6.56325 55.3391 6.50939C53.1952 6.48441 51.654 6.56325 50.1757 6.77415C47.6709 7.12976 43.436 8.21639 43.2258 11.6962C43.0082 15.2582 47.2894 16.8146 49.9043 17.8951L52.072 18.753C54.5445 19.7384 55.7065 20.0992 55.6655 20.8266C55.6261 21.6238 53.9112 21.7549 51.5833 21.6809C47.4719 21.5524 43.135 20.7533 43.135 20.7533L42.8711 24.8769C42.8711 24.8769 46.0115 25.3704 52.2938 25.542C52.6629 25.5508 53.0333 25.5547 53.4021 25.5547C57.9742 25.5547 63.5503 24.8448 64.1611 21.0547C64.7224 17.5788 61.0474 16.0294 57.4679 14.4337Z" fill="#009EA1"/>
<path d="M73.8363 14.1593C74.1859 12.21 75.6964 10.234 78.9023 10.2145C83.5702 10.2557 83.2646 14.1593 83.2646 14.1593H73.8363ZM89.502 17.6525C91.0774 8.74633 83.1431 7.00981 81.2817 6.72947C80.595 6.63927 79.86 6.57276 79.0557 6.56529C70.722 6.49261 66.5552 11.7217 66.2056 16.0532C65.8851 19.9805 67.3833 25.7832 79.6248 25.7832C84.1246 25.7832 87.0138 25.1229 88.2432 24.7712C88.3761 23.9461 88.6436 22.2563 88.8485 20.9575C88.2419 21.0915 84.5742 21.8705 80.579 21.8705C80.4519 21.8705 80.3334 21.8647 80.2102 21.8637C74.6494 21.6729 73.5409 18.9565 73.5324 17.7119C73.5324 17.7119 73.5298 17.6862 73.5265 17.6525H89.502Z" fill="#009EA1"/>
<path d="M147.831 14.1593C148.18 12.21 149.691 10.234 152.897 10.2145C157.563 10.2557 157.256 14.1593 157.256 14.1593H147.831ZM163.495 17.6525C165.07 8.74633 157.135 7.00981 155.277 6.72947C154.592 6.63927 153.851 6.57276 153.05 6.56529C144.715 6.49261 140.549 11.7217 140.197 16.0532C139.879 19.9805 141.376 25.7832 153.619 25.7832C158.119 25.7832 161.007 25.1229 162.24 24.7712C162.37 23.9461 162.636 22.2563 162.843 20.9575C162.236 21.0915 158.569 21.8705 154.572 21.8705C154.445 21.8705 154.326 21.8647 154.204 21.8637C148.644 21.6729 147.536 18.9565 147.527 17.7119C147.527 17.7119 147.527 17.6862 147.521 17.6525H163.495Z" fill="#009EA1"/>
<path d="M107.352 13.2653C107.145 16.5446 106.573 25.3892 106.573 25.3892H113.902L114.69 13.0739C115.039 7.48078 111.064 7.06839 108.435 6.79649C108.259 6.77605 106.863 6.66573 104.95 6.66573C104.452 6.66573 103.925 6.67287 103.373 6.69331C98.8151 6.84516 93.0233 7.51971 93.0233 7.51971L91.873 25.3892H99.2304L100.126 10.8844C100.126 10.8844 102.735 10.5106 104.793 10.5998C105.492 10.6294 107.519 10.595 107.352 13.2653Z" fill="#009EA1"/>
<path d="M39.3853 2.95639e-05H33.2994L32.9316 4.84912H40.7861C40.7861 4.84912 40.9884 2.08438 41.0168 1.62039C41.0849 0.533446 40.6477 2.95639e-05 39.3853 2.95639e-05Z" fill="#009EA1"/>
<path d="M131.548 14.4323L128.739 13.2593C126.773 12.4754 125.288 11.8966 125.544 11.0874C125.691 10.6351 126.595 10.3333 129.289 10.3291C133.517 10.3239 137.727 11.2412 137.727 11.2412L138.105 7.40895C138.105 7.40895 134.146 6.56178 129.418 6.50792C127.276 6.48326 125.734 6.56178 124.258 6.77236C121.753 7.12862 117.515 8.21557 117.305 11.6941C117.088 15.2574 121.369 16.8122 123.984 17.8946L126.154 18.7509C128.625 19.7369 129.785 20.0964 129.748 20.8245C129.703 21.6237 127.993 21.7525 125.665 21.6788C121.55 21.5526 117.214 20.7538 117.214 20.7538L116.951 24.8751C116.951 24.8751 120.091 25.3683 126.373 25.5396C126.743 25.5484 127.113 25.5522 127.481 25.5522C132.056 25.5522 137.629 24.8443 138.243 21.0526C138.801 17.5763 135.128 16.0277 131.548 14.4323Z" fill="#009EA1"/>
<path d="M21.5141 0.000246048L20.8232 8.88565H9.32466L9.89052 1.62061C9.90974 0.0589752 8.57997 0.000246048 7.91932 0.000246048H1.98879L0 25.4238H8.03301L8.91062 14.1877H20.4078L19.5286 25.4238H27.5352L29.5178 0.000246048H21.5141Z" fill="#009EA1"/>
<path d="M32.7341 6.9233L31.3047 25.4238H39.154L40.5903 6.9233H32.7341Z" fill="#009EA1"/>
<path d="M255.288 7.02019H266.266V2.94624H254.738C252.446 2.94624 250.573 3.26616 249.118 3.9047C247.663 4.54389 246.5 5.55978 245.63 6.95172C244.437 8.86897 243.842 11.3569 243.842 14.415C243.842 16.9714 244.231 19.1171 245.011 20.8514C246.202 23.4308 248.207 24.9938 251.026 25.5418C251.828 25.7018 252.985 25.7812 254.498 25.7812H266.266V21.7076H255.494C253.546 21.7076 252.114 21.3426 251.198 20.6119C249.892 19.5623 249.238 17.3481 249.238 13.9702C249.238 11.4595 249.662 9.72458 250.51 8.76612C251.518 7.60227 253.111 7.02019 255.288 7.02019Z" fill="#898989"/>
<path d="M173.305 8.3252C173.311 8.31298 173.314 8.30653 173.314 8.30653L173.313 8.30721C173.31 8.31332 173.307 8.31909 173.305 8.3252Z" fill="#898989"/>
<path d="M232.871 3.13775H228.205L217.92 25.6577H223.635L231.272 8.9333L235.064 17.2207H229.245L227.373 21.2687H236.916L238.924 25.6577H244.615L234.934 4.46026C234.566 3.65495 233.76 3.13775 232.871 3.13775Z" fill="#898989"/>
<path d="M219.08 3.13775L211.443 19.8618L203.791 3.13775H198.1L207.781 24.3352C208.149 25.1405 208.955 25.6577 209.843 25.6577H214.51L224.795 3.13775H219.08Z" fill="#898989"/>
<path d="M191.038 12.8693H179.008V5.0267C179.008 3.99523 178.163 3.15909 177.12 3.15909H173.688V25.7832H179.008V16.9614H191.038V25.7832H196.393V3.15909H191.038V12.8693Z" fill="#898989"/>
</svg>
